<svg xmlns="http://www.w3.org/2000/svg" viewBox="0 0 48 48" width="48" height="48" role="img" aria-label="Ärt">
  
  <ellipse cx="24" cy="38" rx="14" ry="1.2" fill="#3D4F36" opacity="0.10"></ellipse>
  
  <path d="M8 25 C 10 16, 22 9, 36 12 C 41 13, 42 18, 39 22 C 35 26, 27 27, 19 25 C 13 24, 9 27, 8 25 Z" fill="#6B8E5A"></path>
  
  <path d="M11 23 C 18 20, 30 19, 38 18" stroke="#4F6E40" stroke-width="0.9" stroke-linecap="round" fill="none" opacity="0.8"></path>
  
  <circle cx="15" cy="22" r="2.6" fill="#C4D4B6"></circle>
  <circle cx="21" cy="20" r="2.8" fill="#C4D4B6"></circle>
  <circle cx="28" cy="19" r="2.9" fill="#C4D4B6"></circle>
  <circle cx="34" cy="20" r="2.4" fill="#C4D4B6"></circle>
  
  <circle cx="14" cy="21" r="1" fill="#E6EEDF" opacity="0.8"></circle>
  <circle cx="20" cy="19" r="1.1" fill="#E6EEDF" opacity="0.8"></circle>
  <circle cx="27" cy="18" r="1.1" fill="#E6EEDF" opacity="0.8"></circle>
  <circle cx="33.5" cy="19" r="0.9" fill="#E6EEDF" opacity="0.8"></circle>
  
  <path d="M10 26 C 16 32, 30 33, 38 28" stroke="#4F6E40" stroke-width="1.2" stroke-linecap="round" fill="none" opacity="0.6"></path>
  
  <path d="M40 15 C 43 13, 44 11, 43 9 C 41 10, 40 12, 41 14" stroke="#6B8E5A" stroke-width="1.4" stroke-linecap="round" fill="none"></path>
  
  <path d="M6 22 C 4 19, 4 16, 6 15 C 8 17, 9 20, 8 22 Z" fill="#4F6E40"></path>
</svg>