<svg xmlns="http://www.w3.org/2000/svg" viewBox="0 0 48 48" width="48" height="48" role="img" aria-label="Böna">
  
  <ellipse cx="24" cy="40" rx="14" ry="1.2" fill="#3D4F36" opacity="0.10"></ellipse>
  
  <path d="M9 30 C 6 19, 18 9, 32 12 C 41 14, 43 24, 36 32 C 28 39, 14 38, 9 30 Z" fill="#6B8E5A"></path>
  
  <path d="M10 31 C 14 36, 25 38, 35 32" stroke="#4F6E40" stroke-width="1.5" stroke-linecap="round" fill="none" opacity="0.6"></path>
  
  <path d="M14 18 C 22 12, 30 13, 36 16" stroke="#C4D4B6" stroke-width="1.2" stroke-linecap="round" fill="none" opacity="0.8"></path>
  
  <ellipse cx="17" cy="25" rx="3" ry="2.6" fill="#4F6E40" opacity="0.9"></ellipse>
  <ellipse cx="23" cy="22" rx="3.2" ry="2.8" fill="#4F6E40" opacity="0.9"></ellipse>
  <ellipse cx="29" cy="22" rx="3.2" ry="2.8" fill="#4F6E40" opacity="0.9"></ellipse>
  <ellipse cx="35" cy="25" rx="3" ry="2.6" fill="#4F6E40" opacity="0.9"></ellipse>
  
  <ellipse cx="16" cy="24" rx="1" ry="0.7" fill="#C4D4B6" opacity="0.7"></ellipse>
  <ellipse cx="22" cy="21" rx="1" ry="0.7" fill="#C4D4B6" opacity="0.7"></ellipse>
  <ellipse cx="28" cy="21" rx="1" ry="0.7" fill="#C4D4B6" opacity="0.7"></ellipse>
  <ellipse cx="34" cy="24" rx="1" ry="0.7" fill="#C4D4B6" opacity="0.7"></ellipse>
  
  <path d="M40 17 C 42 14, 43 11, 42 9" stroke="#4F6E40" stroke-width="1.4" stroke-linecap="round" fill="none"></path>
  
  <path d="M40 11 C 42 9, 44 8, 44 10 C 43 11, 41 12, 40 12 Z" fill="#4F6E40"></path>
</svg>