<svg xmlns="http://www.w3.org/2000/svg" viewBox="0 0 48 48" width="48" height="48" role="img" aria-label="Tomat">
  
  <ellipse cx="24" cy="42" rx="11" ry="1.4" fill="#3D4F36" opacity="0.10"></ellipse>
  
  <path d="M24 13 C 14 13, 9 21, 10 29 C 11 37, 17 41, 24 41 C 31 41, 37 37, 38 29 C 39 21, 34 13, 24 13 Z" fill="#B8654A"></path>
  
  <path d="M14 22 C 13 26, 13 32, 16 38" stroke="#8E4632" stroke-width="0.7" stroke-linecap="round" fill="none" opacity="0.55"></path>
  <path d="M20 18 C 19 24, 19 32, 21 39" stroke="#8E4632" stroke-width="0.5" stroke-linecap="round" fill="none" opacity="0.4"></path>
  
  <path d="M32 18 C 35 21, 36 26, 35 32" stroke="#E8C9BC" stroke-width="1.2" stroke-linecap="round" fill="none" opacity="0.7"></path>
  
  <circle cx="29" cy="22" r="1.8" fill="#F4E2D9" opacity="0.55"></circle>
  
  <path d="M24 14 C 22 11, 19 9, 17 9 C 18 11, 19 13, 22 14 Z" fill="#6B8E5A"></path>
  <path d="M24 14 C 26 11, 29 9, 31 9 C 30 11, 29 13, 26 14 Z" fill="#4F6E40"></path>
  <path d="M24 14 C 23 11, 21 9, 20 8 C 20 10, 21 13, 23 14 Z" fill="#6B8E5A"></path>
  <path d="M24 14 C 25 11, 27 9, 28 8 C 28 10, 27 13, 25 14 Z" fill="#4F6E40"></path>
  
  <path d="M24 13 L 24 8" stroke="#4F6E40" stroke-width="1.8" stroke-linecap="round"></path>
  <circle cx="24" cy="13" r="1.6" fill="#3D4F36"></circle>
</svg>