<svg xmlns="http://www.w3.org/2000/svg" viewBox="0 0 48 48" width="48" height="48" role="img" aria-label="Sallad">
  
  
  <path d="M24 41 C 14 41, 7 33, 9 24 C 11 25, 14 25, 16 24 C 14 19, 18 13, 23 13 C 22 9, 27 7, 30 9 C 33 8, 37 12, 36 16 C 40 17, 41 22, 39 25 C 41 28, 40 33, 36 35 C 35 39, 30 42, 24 41 Z" fill="#4F6E40"></path>
  
  <path d="M24 39 C 17 39, 12 33, 12 26 C 14 27, 17 27, 18 25 C 17 21, 21 17, 25 18 C 25 14, 30 14, 31 17 C 35 18, 36 22, 34 25 C 36 27, 35 32, 32 33 C 31 36, 28 39, 24 39 Z" fill="#6B8E5A"></path>
  
  <path d="M24 37 C 19 38, 15 33, 16 28 C 18 30, 20 30, 21 28 C 20 24, 23 21, 26 22 C 27 19, 31 21, 31 24 C 33 24, 33 28, 31 29 C 32 32, 28 36, 24 37 Z" fill="#C4D4B6"></path>
  
  <path d="M17 30 C 19 32, 21 34, 23 35" stroke="#4F6E40" stroke-width="0.8" stroke-linecap="round" fill="none" opacity="0.7"></path>
  <path d="M21 26 C 22 28, 24 31, 26 32" stroke="#4F6E40" stroke-width="0.7" stroke-linecap="round" fill="none" opacity="0.65"></path>
  <path d="M27 24 C 28 27, 30 29, 31 30" stroke="#4F6E40" stroke-width="0.7" stroke-linecap="round" fill="none" opacity="0.65"></path>
  
  <path d="M24 25 C 25 27, 25 30, 24 32" stroke="#6B8E5A" stroke-width="0.8" stroke-linecap="round" fill="none" opacity="0.7"></path>
</svg>