<svg xmlns="http://www.w3.org/2000/svg" viewBox="0 0 48 48" width="48" height="48" role="img" aria-label="Gurka">
  
  <ellipse cx="24" cy="39" rx="14" ry="1.2" fill="#3D4F36" opacity="0.10"></ellipse>
  
  <path d="M11 36 C 7 31, 8 23, 14 18 C 20 13, 30 11, 35 14 C 40 18, 39 27, 33 32 C 28 37, 17 39, 11 36 Z" fill="#6B8E5A"></path>
  
  <path d="M12 35 C 16 38, 25 38, 32 33" stroke="#4F6E40" stroke-width="1.6" stroke-linecap="round" fill="none" opacity="0.65"></path>
  
  <path d="M16 18 C 22 14, 30 14, 34 16" stroke="#C4D4B6" stroke-width="1.4" stroke-linecap="round" fill="none" opacity="0.8"></path>
  
  <circle cx="15" cy="28" r="0.7" fill="#4F6E40" opacity="0.6"></circle>
  <circle cx="20" cy="24" r="0.7" fill="#4F6E40" opacity="0.6"></circle>
  <circle cx="25" cy="22" r="0.7" fill="#4F6E40" opacity="0.6"></circle>
  <circle cx="30" cy="24" r="0.7" fill="#4F6E40" opacity="0.6"></circle>
  <circle cx="22" cy="30" r="0.7" fill="#4F6E40" opacity="0.5"></circle>
  <circle cx="27" cy="29" r="0.7" fill="#4F6E40" opacity="0.5"></circle>
  
  <path d="M35 14 L 38 11" stroke="#4F6E40" stroke-width="2" stroke-linecap="round"></path>
  
  <circle cx="38.5" cy="10.5" r="1.6" fill="#C4D4B6" stroke="#4F6E40" stroke-width="0.8"></circle>
  
  <path d="M11 36 L 8 39" stroke="#4F6E40" stroke-width="1.4" stroke-linecap="round"></path>
</svg>