<svg xmlns="http://www.w3.org/2000/svg" viewBox="0 0 48 48" width="48" height="48" role="img" aria-label="Rädisa">
  
  <ellipse cx="24" cy="42" rx="10" ry="1.2" fill="#3D4F36" opacity="0.10"></ellipse>
  
  <path d="M24 21 C 15 21, 13 27, 14 33 C 15 39, 20 42, 24 41 C 28 42, 33 39, 34 33 C 35 27, 33 21, 24 21 Z" fill="#B8654A"></path>
  
  <path d="M28 24 C 31 26, 33 30, 33 33" stroke="#D9A88E" stroke-width="1.4" stroke-linecap="round" fill="none" opacity="0.75"></path>
  <circle cx="29" cy="28" r="1.8" fill="#F4E2D9" opacity="0.55"></circle>
  
  <path d="M20 40 L 21 44 Q 24 45.5 27 44 L 28 40 Z" fill="#FBF8F1" stroke="#8E4632" stroke-width="0.5"></path>
  
  <path d="M23 44 L 22.5 46 M 24.5 44 L 25 46" stroke="#8E4632" stroke-width="0.6" stroke-linecap="round" opacity="0.7"></path>
  
  <path d="M19 21 C 13 18, 11 12, 13 8 C 16 10, 19 14, 21 19 Z" fill="#6B8E5A"></path>
  <path d="M24 19 C 23 13, 23 8, 25 5 C 27 8, 27 14, 26 19 Z" fill="#4F6E40"></path>
  <path d="M29 21 C 35 18, 37 12, 35 8 C 32 10, 29 14, 27 19 Z" fill="#6B8E5A"></path>
  
  <path d="M14 11 C 17 14, 19 17, 20 20" stroke="#3D4F36" stroke-width="0.5" stroke-linecap="round" opacity="0.55"></path>
  <path d="M25 7 C 25 12, 25 16, 25 19" stroke="#3D4F36" stroke-width="0.5" stroke-linecap="round" opacity="0.55"></path>
  <path d="M34 11 C 31 14, 29 17, 28 20" stroke="#3D4F36" stroke-width="0.5" stroke-linecap="round" opacity="0.55"></path>
</svg>