<svg xmlns="http://www.w3.org/2000/svg" viewBox="0 0 64 64" width="64" height="64" role="img" aria-label="Kvadratodling — Rutnätet">
  
  
  <rect x="6" y="6" width="52" height="52" rx="3" fill="none" stroke="#B8654A" stroke-width="2.6" stroke-linejoin="round"></rect>
  
  <g stroke="#B8654A" stroke-width="1.4" stroke-linecap="round" opacity="0.55">
    <line x1="19" y1="8.5" x2="19" y2="55.5"></line>
    <line x1="32" y1="8.5" x2="32" y2="55.5"></line>
    <line x1="45" y1="8.5" x2="45" y2="55.5"></line>
    <line x1="8.5" y1="19" x2="55.5" y2="19"></line>
    <line x1="8.5" y1="32" x2="55.5" y2="32"></line>
    <line x1="8.5" y1="45" x2="55.5" y2="45"></line>
  </g>

  
  <path d="M12.5 18 L12.5 13" stroke="#4F6E40" stroke-width="1.8" stroke-linecap="round" fill="none"></path>
  <path d="M12.5 14 C 8.5 13, 7 11, 8 8.5 C 11 8.5, 12.5 11, 12.5 13 Z" fill="#6B8E5A"></path>
  <path d="M12.5 14 C 16.5 13, 18 11, 17 8.5 C 14 8.5, 12.5 11, 12.5 13 Z" fill="#4F6E40"></path>

  
  <circle cx="38.5" cy="12.5" r="1.8" fill="#6B8E5A"></circle>

  
  <path d="M51.5 22 L48 30 Q51.5 33 55 30 Z" fill="#B8654A"></path>
  <path d="M50 22 L48.5 18" stroke="#6B8E5A" stroke-width="1.4" stroke-linecap="round"></path>
  <path d="M51.5 22 L51.5 17.5" stroke="#6B8E5A" stroke-width="1.4" stroke-linecap="round"></path>
  <path d="M53 22 L54.5 18" stroke="#6B8E5A" stroke-width="1.4" stroke-linecap="round"></path>

  
  <circle cx="25.5" cy="39" r="4.5" fill="#B8654A"></circle>
  <path d="M25.5 34.5 L25.5 32.5" stroke="#6B8E5A" stroke-width="1.4" stroke-linecap="round"></path>
  <path d="M23 34.8 L27 34.8" stroke="#6B8E5A" stroke-width="1.4" stroke-linecap="round"></path>

  
  <path d="M9 52 C 11 47, 16 47, 17 51 C 16 53, 13 54, 12 53.5 C 11.2 54.6, 9.8 54.4, 9 52 Z" fill="#6B8E5A"></path>
  <path d="M13 50 C 13.5 51, 14 52, 13.5 53" stroke="#4F6E40" stroke-width="0.8" stroke-linecap="round" fill="none"></path>

  
  <circle cx="49" cy="49" r="1.4" fill="#6B8E5A"></circle>
  <circle cx="52.5" cy="49" r="1.4" fill="#6B8E5A"></circle>
  <circle cx="49" cy="52.5" r="1.4" fill="#6B8E5A"></circle>
  <circle cx="52.5" cy="52.5" r="1.4" fill="#6B8E5A"></circle>
</svg>