<svg xmlns="http://www.w3.org/2000/svg" viewBox="0 0 64 64" width="64" height="64" role="img" aria-label="Kvadratodling — Grodden">
  
  
  <rect x="9" y="9" width="46" height="46" rx="3" fill="#E8DCC4"></rect>
  
  <rect x="6" y="6" width="52" height="52" rx="4" fill="none" stroke="#B8654A" stroke-width="3.2" stroke-linejoin="round"></rect>
  
  <rect x="9" y="9" width="46" height="46" rx="3" fill="none" stroke="#B8654A" stroke-width="1" opacity="0.4"></rect>

  
  <path d="M32 52 L32 32" stroke="#4F6E40" stroke-width="2.6" stroke-linecap="round" fill="none"></path>
  
  <path d="M32 34 C 22 32, 16 24, 19 16 C 28 17, 32 24, 32 32 Z" fill="#6B8E5A"></path>
  
  <path d="M32 34 C 42 32, 48 24, 45 16 C 36 17, 32 24, 32 32 Z" fill="#4F6E40"></path>
  
  <path d="M24 28 C 27 28, 30 30, 31 32" stroke="#4F6E40" stroke-width="0.8" stroke-linecap="round" fill="none" opacity="0.7"></path>
  
  <circle cx="32" cy="32.5" r="1.3" fill="#4F6E40"></circle>
</svg>